<?xml version="1.0" encoding="utf-8"?>
<!-- Generator: Adobe Illustrator 16.0.4, SVG Export Plug-In . SVG Version: 6.00 Build 0)  -->
<!DOCTYPE svg PUBLIC "-//W3C//DTD SVG 1.1//EN" "http://www.w3.org/Graphics/SVG/1.1/DTD/svg11.dtd">
<svg version="1.1" id="Layer_1" xmlns="http://www.w3.org/2000/svg" xmlns:xlink="http://www.w3.org/1999/xlink" x="0px" y="0px"
	 width="40px" height="40px" viewBox="0 0 40 40" enable-background="new 0 0 40 40" xml:space="preserve">
<g>
	<path fill="#FFFFFF" d="M20,40C8.972,40,0,31.028,0,20S8.972,0,20,0s20,8.972,20,20S31.028,40,20,40z M20,0.5
		C9.248,0.5,0.5,9.248,0.5,20S9.248,39.5,20,39.5S39.5,30.752,39.5,20S30.752,0.5,20,0.5z"/>
	<path fill="#B5B5B5" d="M37.446,10.215c-0.066-0.118-0.218-0.158-0.329-0.092c-0.117,0.065-0.158,0.213-0.093,0.329
		c1.63,2.898,2.491,6.201,2.491,9.548c0,10.761-8.755,19.517-19.517,19.517C9.238,39.517,0.484,30.761,0.484,20
		C0.484,9.239,9.239,0.484,20,0.484c2.366,0,4.679,0.419,6.875,1.246c0.127,0.048,0.264-0.016,0.312-0.142
		c0.046-0.125-0.018-0.264-0.142-0.312C24.795,0.43,22.424,0,20,0C8.972,0,0,8.972,0,20s8.972,20,20,20s20-8.972,20-20
		C40,16.569,39.118,13.186,37.446,10.215z"/>
</g>
</svg>
