<?xml version="1.0" encoding="utf-8"?>
<!-- Generator: Adobe Illustrator 16.0.4, SVG Export Plug-In . SVG Version: 6.00 Build 0)  -->
<!DOCTYPE svg PUBLIC "-//W3C//DTD SVG 1.1//EN" "http://www.w3.org/Graphics/SVG/1.1/DTD/svg11.dtd">
<svg version="1.1" id="Layer_1" xmlns="http://www.w3.org/2000/svg" xmlns:xlink="http://www.w3.org/1999/xlink" x="0px" y="0px"
	 width="200px" height="43.513px" viewBox="0 0 200 43.513" enable-background="new 0 0 200 43.513" xml:space="preserve">
<path fill="#FFFFFF" d="M0,0.37V5.3h10.478v37.843h5.239V5.362h10.478V0.432H0V0.37z M30.016,0.37v42.773h21.448v-4.931H35.316
	V23.667h16.148v-4.931H35.316V5.362h16.148V0.432H30.016V0.37z M121.171,0.37v42.773h21.449v-4.931h-16.148V23.667h16.148v-4.931
	h-16.148V5.362h16.148V0.432h-21.449V0.37z M149.029,0.37v42.773h21.448v-4.931H154.33V0.37H149.029z M66.996,0l-6.041,3.205
	l-3.574,5.67v6.657l3.574,5.67l6.041,3.205h5.608l3.698,1.912l2.034,3.204v3.575l-2.034,3.205l-3.698,1.911H68.29l-3.698-1.911
	l-2.034-3.205v-3.514h-5.239v5.054l3.575,5.67l6.04,3.204h7.026L80,40.309l3.575-5.67v-6.656L80,22.312l-6.04-3.205h-5.609
	l-3.698-1.911l-2.034-3.205v-3.575l2.034-3.205L68.351,5.3h4.314l3.698,1.911l2.034,3.205v3.513h5.239V8.875l-3.575-5.67L73.96,0
	H66.996z M98.675,0l-6.04,3.205l-3.575,5.67v6.657l3.575,5.67l6.04,3.205h5.609l3.698,1.912l2.034,3.204v3.575l-2.034,3.205
	l-3.698,1.911h-4.314l-3.698-1.911l-2.034-3.205v-3.514h-5.239v5.054l3.575,5.67l6.04,3.204h6.903l6.04-3.204l3.575-5.67v-6.656
	l-3.575-5.67l-6.04-3.205h-5.609l-3.698-1.911l-2.034-3.205v-3.575l2.034-3.205L99.907,5.3h4.314l3.698,1.911l2.035,3.205v3.513
	h5.239V8.875l-3.575-5.67L105.578,0H98.675z M181.141,35.994l-2.157-4.006V11.525l2.157-4.006l3.635-2.281h4.13l3.636,2.281
	l2.157,4.006v20.462l-2.157,4.006l-3.636,2.28h-4.13L181.141,35.994z M183.298,0l-6.102,3.76l-3.451,6.41v23.112l3.451,6.41
	l6.102,3.76h7.149l6.102-3.76l3.451-6.41V10.169l-3.451-6.41L190.447,0H183.298z"/>
</svg>
