<?xml version="1.0" encoding="utf-8"?>
<!-- Generator: Adobe Illustrator 22.0.0, SVG Export Plug-In . SVG Version: 6.00 Build 0)  -->
<svg version="1.1" id="Layer_1" xmlns="http://www.w3.org/2000/svg" xmlns:xlink="http://www.w3.org/1999/xlink" x="0px" y="0px"
	 viewBox="0 0 1201 244" style="enable-background:new 0 0 1201 244;" xml:space="preserve">
<style type="text/css">
	.st0{fill:#FFFFFF;stroke:#FFFFFF;stroke-width:1.5;stroke-miterlimit:10;}
</style>
<g>
	<path class="st0" d="M131.5,241.2h-21.1v-97.5L98.3,121l-20.5-12.7H54.4L33.9,121l-12.1,22.6v97.5H0.8V0.8h21.1v103l26.6-16.5h35.4
		l30.4,18.9l17.3,32.2V241.2z"/>
	<path class="st0" d="M596.1,243.3h-35.4l-30.4-18.9L513,192.1v-53.8l17.3-32.2l30.4-18.9h35.4l30.4,18.9l17.3,32.2v53.8l-17.3,32.2
		L596.1,243.3z M566.7,222.2H590l20.5-12.7l12.1-22.6v-43.2L610.5,121L590,108.3h-23.4L546.2,121l-12.1,22.6v43.2l12.1,22.6
		L566.7,222.2z"/>
	<path class="st0" d="M1200.1,89.3l-40.7,151.8h-23l-29.8-111.1l-29.8,111.1h-23l-40.7-151.8h21.8l30.3,113.2l30.3-113.2h21.8
		l30.3,113.2l30.3-113.2H1200.1z"/>
</g>
</svg>
