<?xml version="1.0" encoding="utf-8"?>
<!-- Generator: Adobe Illustrator 22.0.0, SVG Export Plug-In . SVG Version: 6.00 Build 0)  -->
<svg version="1.1" id="Layer_1" xmlns="http://www.w3.org/2000/svg" xmlns:xlink="http://www.w3.org/1999/xlink" x="0px" y="0px"
	 viewBox="0 0 1222.9 315.7" style="enable-background:new 0 0 1222.9 315.7;" xml:space="preserve">
<style type="text/css">
	.st0{fill:#3127C7;}
</style>
<g>
	<g>
		<path class="st0" d="M187.8,89.3l-40.7,151.8h-23L94.4,130.1L64.6,241.2h-23L1,89.3h21.8l30.3,113.2L83.5,89.3h21.8l30.3,113.2
			L166,89.3H187.8z"/>
		<path class="st0" d="M147.7,241.9h-24.1L94.4,133L65.2,241.9H41.1L0,88.6h23.4l29.8,111.1L82.9,88.6h23l29.8,111.1l29.8-111.1
			h23.4L147.7,241.9z M124.7,240.4h21.8l40.3-150.3h-20.3l-30.9,115.4L104.7,90.1H84.1L53.1,205.4L22.2,90.1H2l40.3,150.3H64
			l30.3-113.2L124.7,240.4z"/>
	</g>
	<g>
		<path class="st0" d="M712.1,241.2H691v-97.5L678.9,121l-20.5-12.7H635L614.5,121l-12.1,22.6v97.5h-21.1V0.8h21.1v103L629,87.2
			h35.4l30.4,18.9l17.3,32.2V241.2z"/>
		<path class="st0" d="M712.8,241.9h-22.6v-98.1l-11.9-22.2L658.2,109h-22.9l-20.1,12.5l-11.9,22.2v98.1h-22.6V0h22.6v102.4
			l25.6-15.9h35.8l30.8,19.1l17.5,32.6V241.9z M691.7,240.4h19.6V138.5l-17.1-31.9l-30-18.7h-35l-27.5,17.1V1.5h-19.6v238.9h19.6
			v-97l12.3-22.9l0.2-0.1l20.7-12.9h23.8l20.8,13l12.3,22.9V240.4z"/>
	</g>
	<g>
		<path class="st0" d="M1221.9,89.3l-41.6,155.3V315h-21.1v-70.3l-41.6-155.3h21.8l30.3,113.2l30.3-113.2H1221.9z"/>
		<path class="st0" d="M1181,315.7h-22.6v-71l-41.8-156.2h23.4l0.1,0.6l29.6,110.5l29.8-111.1h23.4L1181,244.8V315.7z M1160,314.2
			h19.6v-69.7l0-0.1l41.4-154.4h-20.3l-30.9,115.4l-30.9-115.4h-20.3l41.4,154.5V314.2z"/>
	</g>
</g>
</svg>
