<?xml version="1.0" encoding="utf-8"?>
<!-- Generator: Adobe Illustrator 16.0.4, SVG Export Plug-In . SVG Version: 6.00 Build 0)  -->
<!DOCTYPE svg PUBLIC "-//W3C//DTD SVG 1.1//EN" "http://www.w3.org/Graphics/SVG/1.1/DTD/svg11.dtd">
<svg version="1.1" id="Layer_1" xmlns="http://www.w3.org/2000/svg" xmlns:xlink="http://www.w3.org/1999/xlink" x="0px" y="0px"
	 width="1920px" height="386.177px" viewBox="0 0 1920 386.177" enable-background="new 0 0 1920 386.177" xml:space="preserve">
<g>
	<polygon fill="none" stroke="#3127C7" stroke-width="1.5" stroke-miterlimit="10" points="262.738,141.037 214.436,321.302 
		166.133,141.037 131.369,141.037 83.066,321.302 34.764,141.037 0,141.037 64.784,382.817 101.349,382.817 148.753,205.913 
		196.153,382.817 232.718,382.817 297.502,141.037 	"/>
	<polygon fill="none" stroke="#3127C7" stroke-width="1.5" stroke-miterlimit="10" points="862.684,219.084 835.176,167.775 
		786.769,137.68 730.393,137.68 688.062,163.998 688.062,0 654.482,0 654.482,382.817 688.062,382.817 688.062,227.521 
		707.347,191.553 739.98,171.259 777.186,171.259 809.819,191.553 829.1,227.521 829.1,382.817 862.684,382.817 	"/>
	<path fill="none" stroke="#3127C7" stroke-width="1.5" stroke-miterlimit="10" d="M1403.798,296.336l-19.28,35.968l-32.639,20.289
		h-37.2l-32.634-20.289l-19.285-35.968v-68.815l19.285-35.968l32.634-20.289h37.2l32.639,20.289l19.28,35.968V296.336z
		 M1403.798,141.037v22.966l-42.331-26.323h-56.377l-48.402,30.096l-27.508,51.309v85.688l27.508,51.308l48.402,30.097h56.377
		l42.331-26.318v22.959h33.583v-241.78H1403.798z"/>
	<polygon fill="none" stroke="#3127C7" stroke-width="1.5" stroke-miterlimit="10" points="1920,137.68 1876.346,137.68 1876.346,0 
		1842.76,0 1842.76,137.68 1799.105,137.68 1799.105,169.396 1842.76,169.396 1842.76,382.817 1876.346,382.817 1876.346,169.396 
		1920,169.396 	"/>
</g>
</svg>
