<?xml version="1.0" encoding="utf-8"?>
<!-- Generator: Adobe Illustrator 22.1.0, SVG Export Plug-In . SVG Version: 6.00 Build 0)  -->
<svg version="1.1" id="Layer_1" xmlns="http://www.w3.org/2000/svg" xmlns:xlink="http://www.w3.org/1999/xlink" x="0px" y="0px"
	 viewBox="0 0 1920 496" style="enable-background:new 0 0 1920 496;" xml:space="preserve">
<style type="text/css">
	.st0{clip-path:url(#SVGID_2_);fill:none;stroke:#3127C7;stroke-width:1.5;stroke-miterlimit:10;}
	.st1{clip-path:url(#SVGID_4_);fill:none;stroke:#3127C7;stroke-width:1.5;stroke-miterlimit:10;}
	.st2{clip-path:url(#SVGID_6_);fill:none;stroke:#3127C7;stroke-width:1.5;stroke-miterlimit:10;}
</style>
<g>
	<g>
		<defs>
			<rect id="SVGID_1_" width="1920" height="495.7"/>
		</defs>
		<clipPath id="SVGID_2_">
			<use xlink:href="#SVGID_1_"  style="overflow:visible;"/>
		</clipPath>
		<polygon class="st0" points="294.9,140.2 231,378.6 194.9,378.6 148.2,204.2 101.5,378.6 65.4,378.6 1.5,140.2 35.8,140.2 
			83.4,318 131.1,140.2 165.3,140.2 213,318 260.6,140.2 		"/>
	</g>
	<g>
		<defs>
			<rect id="SVGID_3_" width="1920" height="495.7"/>
		</defs>
		<clipPath id="SVGID_4_">
			<use xlink:href="#SVGID_3_"  style="overflow:visible;"/>
		</clipPath>
		<polygon class="st1" points="1118,378.6 1084.9,378.6 1084.9,225.5 1065.9,190 1033.7,170 997,170 964.8,190 945.8,225.5 
			945.8,378.6 912.7,378.6 912.7,1.2 945.8,1.2 945.8,162.9 987.6,136.9 1043.1,136.9 1090.9,166.6 1118,217.2 		"/>
	</g>
	<g>
		<defs>
			<rect id="SVGID_5_" width="1920" height="495.7"/>
		</defs>
		<clipPath id="SVGID_6_">
			<use xlink:href="#SVGID_5_"  style="overflow:visible;"/>
		</clipPath>
		<polygon class="st2" points="1918.5,140.2 1853.1,384.1 1853.1,494.5 1820,494.5 1820,384.1 1754.7,140.2 1788.9,140.2 
			1836.6,318 1884.2,140.2 		"/>
	</g>
</g>
</svg>
