<?xml version="1.0" encoding="utf-8"?>
<!-- Generator: Adobe Illustrator 22.0.0, SVG Export Plug-In . SVG Version: 6.00 Build 0)  -->
<svg version="1.1" id="Layer_1" xmlns="http://www.w3.org/2000/svg" xmlns:xlink="http://www.w3.org/1999/xlink" x="0px" y="0px"
	 viewBox="0 0 1207.4 244" style="enable-background:new 0 0 1207.4 244;" xml:space="preserve">
<style type="text/css">
	.st0{fill:#3127C7;}
</style>
<g>
	<g>
		<g>
			<path class="st0" d="M187.8,89.3l-40.7,151.8h-23L94.4,130.1L64.6,241.2h-23L1,89.3h21.8l30.3,113.2L83.5,89.3h21.8l30.3,113.2
				L166,89.3H187.8z"/>
			<path class="st0" d="M147.7,241.9h-24.1L94.4,133L65.2,241.9H41.1L0,88.6h23.4l29.8,111.1L82.9,88.6h23l29.8,111.1l29.8-111.1
				h23.4L147.7,241.9z M124.7,240.4h21.8l40.3-150.3h-20.3l-30.9,115.4L104.7,90.1H84.1L53.1,205.4L22.2,90.1H2l40.3,150.3H64
				l30.3-113.2L124.7,240.4z"/>
		</g>
		<g>
			<path class="st0" d="M542.7,241.2h-21.1v-97.5L509.5,121L489,108.3h-23.4L445.2,121l-12.1,22.6v97.5H412V0.8h21.1v103l26.6-16.5
				h35.4l30.4,18.9l17.3,32.2V241.2z"/>
			<path class="st0" d="M543.5,241.9h-22.6v-98.1L509,121.6L488.8,109h-22.9l-20.1,12.5l-11.9,22.2v98.1h-22.6V0h22.6v102.4
				l25.6-15.9h35.8l30.8,19.1l17.5,32.6V241.9z M522.4,240.4H542V138.5l-17.1-31.9l-30-18.7h-35l-27.5,17.1V1.5h-19.6v238.9h19.6
				v-97l12.3-22.9l0.2-0.1l20.7-12.9h23.8l20.8,13l12.3,22.9V240.4z"/>
		</g>
		<g>
			<path class="st0" d="M903.6,89.3v151.8h-21.1v-14.4L856,243.3h-35.4l-30.4-18.9l-17.3-32.2v-53.8l17.3-32.2l30.4-18.9H856
				l26.6,16.5V89.3H903.6z M882.5,143.6L870.4,121l-20.5-12.7h-23.4L806.1,121L794,143.6v43.2l12.1,22.6l20.5,12.7h23.4l20.5-12.7
				l12.1-22.6V143.6z"/>
			<path class="st0" d="M856.2,244h-35.8l-30.7-19.1l-17.5-32.6v-54.2l17.5-32.6l30.7-19.1h35.8l25.6,15.9V88.6h22.6v153.3h-22.6
				v-13.8L856.2,244z M820.8,242.5h35l27.5-17.1v15h19.6V90.1h-19.6v15L855.7,88h-35l-30,18.7l-17.1,31.9V192l17.1,31.9L820.8,242.5
				z M850.1,222.9h-23.8l-20.8-13L793.2,187v-43.6l12.3-22.9l20.8-13h23.8l20.8,13l12.3,22.9V187L871,210l-0.2,0.1L850.1,222.9z
				 M826.8,221.4h22.9l20.1-12.5l11.9-22.2v-42.8l-11.9-22.2l-20.1-12.5h-22.9l-20.1,12.5l-11.9,22.2v42.8l11.9,22.2L826.8,221.4z"
				/>
		</g>
		<g>
			<path class="st0" d="M1206.7,107.1h-27.4v134h-21.1v-134h-27.4V87.2h27.4V0.8h21.1v86.5h27.4V107.1z"/>
			<path class="st0" d="M1180,241.9h-22.6v-134H1130V86.5h27.4V0h22.6v86.5h27.4v21.4H1180V241.9z M1158.9,240.4h19.6v-134h27.4V88
				h-27.4V1.5h-19.6V88h-27.4v18.4h27.4V240.4z"/>
		</g>
	</g>
</g>
</svg>
