<?xml version="1.0" encoding="utf-8"?>
<!-- Generator: Adobe Illustrator 22.1.0, SVG Export Plug-In . SVG Version: 6.00 Build 0)  -->
<svg version="1.1" id="Layer_1" xmlns="http://www.w3.org/2000/svg" xmlns:xlink="http://www.w3.org/1999/xlink" x="0px" y="0px"
	 viewBox="0 0 1201.2 243.5" style="enable-background:new 0 0 1201.2 243.5;" xml:space="preserve">
<style type="text/css">
	.st0{fill:#3127C7;stroke:#3127C7;stroke-miterlimit:10;}
</style>
<g>
	<path class="st0" d="M131.2,89.1v151.8h-21.1v-14.4L83.6,243H48.2l-30.4-18.9L0.5,191.9v-53.8l17.3-32.2L48.2,87h35.4l26.6,16.5
		V89.1H131.2z M110.2,143.4L98,120.8l-20.5-12.7H54.2l-20.5,12.7l-12.1,22.6v43.2l12.1,22.6l20.5,12.7h23.4L98,209.2l12.1-22.6
		L110.2,143.4L110.2,143.4z"/>
	<path class="st0" d="M420.6,138.1v53.8l-17.3,32.2L372.9,243h-35.4l-26.6-16.5v14.4h-21.1V0.5h21.1v103L337.5,87h35.4l30.4,18.9
		L420.6,138.1z M399.5,143.4l-12.1-22.6l-20.5-12.7h-23.4L323,120.8l-12.1,22.6v43.2l12.1,22.6l20.5,12.7h23.4l20.5-12.7l12.1-22.6
		V143.4z"/>
	<path class="st0" d="M648.7,243h-35.4l-30.4-18.9l-17.3-32.2v-53.8l17.3-32.2L613.3,87h35.4l30.4,18.9l17.3,32.2v53.8l-17.3,32.2
		L648.7,243z M619.3,221.9h23.4l20.5-12.7l12.1-22.6v-43.2l-12.1-22.6l-20.5-12.7h-23.4l-20.5,12.7l-12.1,22.6v43.2l12.1,22.6
		L619.3,221.9z"/>
	<path class="st0" d="M975.2,89.1v151.8h-21.1v-14.4L927.5,243h-35.4l-30.4-18.9l-17.3-32.2V89.1h21.1v97.5l12.1,22.6l20.5,12.7
		h23.4l20.5-12.7l12.1-22.6V89.1H975.2z"/>
	<path class="st0" d="M1200.7,106.9h-27.4v134h-21.1v-134h-27.4V87h27.4V0.5h21.1V87h27.4V106.9z"/>
</g>
</svg>
