<?xml version="1.0" standalone="no"?>
<!DOCTYPE svg PUBLIC "-//W3C//DTD SVG 20010904//EN"
 "http://www.w3.org/TR/2001/REC-SVG-20010904/DTD/svg10.dtd">
<svg version="1.0" xmlns="http://www.w3.org/2000/svg"
 width="1200.000000pt" height="1200.000000pt" viewBox="0 0 1200.000000 1200.000000"
 preserveAspectRatio="xMidYMid meet">
<metadata>
Created by potrace 1.11, written by Peter Selinger 2001-2013
</metadata>
<g transform="translate(0.000000,1200.000000) scale(0.100000,-0.100000)"
fill="#000000" stroke="none">
<path d="M2350 11296 l0 -703 1433 -1 c787 -1 1446 -1 1462 -1 l30 -1 -1
-5295 -2 -5295 728 0 c574 0 729 3 732 13 2 6 3 2389 3 5295 -1 4769 0 5282
14 5283 9 0 666 1 1461 2 l1445 2 0 703 1 702 -3653 0 -3653 0 0 -704z"/>
</g>
</svg>
