<?xml version="1.0" encoding="utf-8"?>
<!-- Generator: Adobe Illustrator 16.0.4, SVG Export Plug-In . SVG Version: 6.00 Build 0)  -->
<!DOCTYPE svg PUBLIC "-//W3C//DTD SVG 1.1//EN" "http://www.w3.org/Graphics/SVG/1.1/DTD/svg11.dtd">
<svg version="1.1" id="Layer_1" xmlns="http://www.w3.org/2000/svg" xmlns:xlink="http://www.w3.org/1999/xlink" x="0px" y="0px"
	 width="399.999px" height="38.428px" viewBox="0 0 399.999 38.428" enable-background="new 0 0 399.999 38.428"
	 xml:space="preserve">
<g>
	<path d="M2.562,2.561h7.252l3.218,1.743l1.827,2.966v3.393l-1.827,2.968l-3.218,1.74H2.562V2.561z M0,0v29.461h2.562V17.933h7.9
		l4.393-2.377l2.565-4.167V6.545l-2.565-4.168L10.462,0H0z"/>
	<rect x="22.55" y="0.256" width="2.562" height="29.204"/>
	<path d="M46.485,11.017V29.46h-2.562v-1.751l-3.23,2.008h-4.3L32.7,27.421l-2.098-3.914v-6.538l2.098-3.914l3.693-2.296h4.3
		l3.23,2.009v-1.751H46.485z M43.923,17.613l-1.471-2.744l-2.49-1.548h-2.838l-2.49,1.548l-1.471,2.744v5.25l1.471,2.744l2.49,1.548
		h2.838l2.49-1.548l1.471-2.744V17.613z"/>
	<polygon points="68.562,16.97 68.562,29.461 66,29.461 66,17.613 64.53,14.869 62.039,13.32 59.201,13.32 56.712,14.869 
		55.241,17.613 55.241,29.461 52.678,29.461 52.678,11.016 55.241,11.016 55.241,12.767 58.469,10.76 62.771,10.76 66.463,13.055 	
		"/>
	<path d="M76.223,21.776v1.087l1.471,2.744l2.49,1.548h2.839l2.489-1.548l0.68-1.271h2.907l-1.653,3.084l-3.693,2.296h-4.3
		l-3.694-2.296l-2.098-3.915v-6.537l2.098-3.913l3.694-2.297h4.3l3.693,2.297l2.099,3.913v4.808H76.223z M76.223,19.213h10.76v-1.6
		l-1.471-2.744l-2.491-1.548h-2.837l-2.49,1.548l-1.471,2.744V19.213z"/>
	<polygon points="97.248,0.256 97.248,10.759 93.917,10.759 93.917,13.178 97.248,13.178 97.248,29.46 99.809,29.46 99.809,13.178 
		103.14,13.178 103.14,10.759 99.809,10.759 99.809,0.256 	"/>
	<path d="M121.761,15.883h7.252l3.218,1.568l1.827,2.669v3.055l-1.827,2.669l-3.218,1.566h-7.252V15.883z M121.761,2.269h7.252
		l3.218,1.543l1.827,2.628v3.004l-1.827,2.628l-3.141,1.506h-7.329V2.269z M119.199,0v29.718h10.462l4.392-2.14l2.567-3.751v-4.359
		l-2.567-3.751l-2.006-0.979l2.006-0.961l2.567-3.691V5.797l-2.567-3.692L129.661,0H119.199z"/>
	<path d="M153.37,29.461h2.562V11.016h-2.562V29.461z M154.309,0l-0.595,0.344l-0.344,0.595v0.687l0.344,0.594l0.595,0.343h0.686
		l0.595-0.343l0.343-0.594V0.938l-0.343-0.595L154.995,0H154.309z"/>
	<polygon points="171.264,16.396 171.264,15.384 170.509,14.076 169.202,13.321 166.411,13.322 165.103,14.076 164.348,15.384 
		164.348,16.894 165.103,18.203 166.41,18.958 169.888,18.958 172.385,20.397 173.827,22.896 173.827,25.779 172.385,28.274 
		169.888,29.717 165.724,29.717 163.227,28.274 161.786,25.779 161.786,24.081 164.348,24.081 164.348,25.092 165.103,26.398 
		166.411,27.156 169.202,27.156 170.509,26.398 171.264,25.092 171.264,23.583 170.509,22.273 169.202,21.519 165.724,21.519 
		163.227,20.078 161.786,17.581 161.786,14.697 163.227,12.201 165.724,10.759 169.888,10.759 172.385,12.201 173.827,14.697 
		173.827,16.396 	"/>
	<polygon points="192.839,0.256 192.839,10.759 189.508,10.759 189.508,13.178 192.839,13.178 192.839,29.46 195.4,29.46 
		195.4,13.178 198.731,13.178 198.731,10.759 195.4,10.759 195.4,0.256 	"/>
	<path d="M213.043,29.718h-4.301l-3.692-2.296l-2.099-3.915V16.97l2.099-3.915l3.692-2.295h4.301l3.693,2.295l2.1,3.915v6.537
		l-2.1,3.915L213.043,29.718z M209.475,27.155h2.837l2.491-1.549l1.47-2.743v-5.25l-1.47-2.744l-2.491-1.548h-2.837l-2.49,1.548
		l-1.471,2.744v5.25l1.471,2.743L209.475,27.155z"/>
	<path d="M233.298,29.718h-4.3l-3.694-2.296l-2.099-3.915V16.97l2.099-3.915l3.694-2.295h4.3l3.692,2.295l2.1,3.915v6.537
		l-2.1,3.915L233.298,29.718z M229.729,27.155h2.838l2.49-1.549l1.471-2.743v-5.25l-1.471-2.744l-2.49-1.548h-2.838l-2.49,1.548
		l-1.471,2.744v5.25l1.471,2.743L229.729,27.155z"/>
	<polygon points="264.424,0 260.731,2.296 258.633,6.21 258.633,10.76 255.303,10.76 255.303,13.179 258.633,13.179 258.633,29.461 
		261.194,29.461 261.194,13.179 266.573,13.179 266.573,10.76 261.194,10.76 261.194,6.854 262.665,4.109 265.155,2.562 
		266.573,2.562 266.573,0 	"/>
	<path d="M285.758,11.017V29.46h-2.562v-1.751l-3.23,2.008h-4.3l-3.693-2.296l-2.098-3.914v-6.538l2.098-3.914l3.693-2.296h4.3
		l3.23,2.009v-1.751H285.758z M283.195,17.613l-1.472-2.744l-2.489-1.548h-2.838l-2.49,1.548l-1.471,2.744v5.25l1.471,2.744
		l2.49,1.548h2.838l2.489-1.548l1.472-2.744V17.613z"/>
	<polygon points="302.614,10.759 302.614,13.321 299.222,13.321 296.254,15.148 294.514,18.366 294.514,29.46 291.95,29.46 
		291.95,11.017 294.514,11.017 294.514,13.212 298.495,10.759 	"/>
	<path d="M333.809,11.017V29.46h-2.562v-1.751l-3.23,2.008h-4.3l-3.693-2.296l-2.098-3.914v-6.538l2.098-3.914l3.693-2.296h4.3
		l3.23,2.009v-1.751H333.809z M331.246,17.613l-1.472-2.744l-2.489-1.548h-2.838l-2.49,1.548l-1.472,2.744v5.25l1.472,2.744
		l2.49,1.548h2.838l2.489-1.548l1.472-2.744V17.613z"/>
	<polygon points="361.24,11.016 356.297,29.46 353.508,29.46 349.893,15.964 346.276,29.46 343.486,29.46 338.543,11.016 
		341.196,11.016 344.88,24.767 348.566,11.016 351.218,11.016 354.903,24.767 358.587,11.016 	"/>
	<path d="M381.133,11.017V29.46h-2.563v-1.751l-3.229,2.008h-4.3l-3.693-2.296l-2.098-3.914v-6.538l2.098-3.914l3.693-2.296h4.3
		l3.229,2.009v-1.751H381.133z M378.569,17.613l-1.471-2.744l-2.49-1.548h-2.838l-2.49,1.548l-1.471,2.744v5.25l1.471,2.744
		l2.49,1.548h2.838l2.49-1.548l1.471-2.744V17.613z"/>
	<polygon points="397.348,11.016 393.662,24.768 389.978,11.016 387.325,11.016 392.381,29.886 392.381,38.428 394.943,38.428 
		394.943,29.886 399.999,11.016 	"/>
</g>
</svg>
