<?xml version="1.0" encoding="utf-8"?>
<!-- Generator: Adobe Illustrator 21.1.0, SVG Export Plug-In . SVG Version: 6.00 Build 0)  -->
<svg version="1.1" id="Layer_1" xmlns="http://www.w3.org/2000/svg" xmlns:xlink="http://www.w3.org/1999/xlink" x="0px" y="0px"
	 width="354px" height="136px" viewBox="0 0 354 136" style="enable-background:new 0 0 354 136;" xml:space="preserve">
<style type="text/css">
	.st0{fill:#FFFFFF;}
</style>
<path class="st0" d="M16,33.6v8h17V103h8.5V41.7h17v-8H16z M64.7,33.6V103h34.8v-8H73.3V71.4h26.2v-8H73.3V41.7h26.2v-8H64.7z
	 M212.6,33.6V103h34.8v-8h-26.2V71.4h26.2v-8h-26.2V41.7h26.2v-8H212.6z M257.8,33.6V103h34.8v-8h-26.2V33.6H257.8z M124.7,33
	l-9.8,5.2l-5.8,9.2v10.8l5.8,9.2l9.8,5.2h9.1l6,3.1l3.3,5.2v5.8l-3.3,5.2l-6,3.1h-7l-6-3.1l-3.3-5.2V81h-8.5v8.2l5.8,9.2l9.8,5.2
	H136l9.8-5.2l5.8-9.2V78.4l-5.8-9.2L136,64h-9.1l-6-3.1l-3.3-5.2v-5.8l3.3-5.2l6-3.1h7l6,3.1l3.3,5.2v5.7h8.5v-8.2l-5.8-9.2L136,33
	H124.7z M176.1,33l-9.8,5.2l-5.8,9.2v10.8l5.8,9.2l9.8,5.2h9.1l6,3.1l3.3,5.2v5.8l-3.3,5.2l-6,3.1h-7l-6-3.1l-3.3-5.2V81h-8.5v8.2
	l5.8,9.2l9.8,5.2h11.2l9.8-5.2l5.8-9.2V78.4l-5.8-9.2l-9.8-5.2h-9.1l-6-3.1l-3.3-5.2v-5.8l3.3-5.2l6-3.1h7l6,3.1l3.3,5.2v5.7h8.5
	v-8.2l-5.8-9.2l-9.8-5.2H176.1z M309.9,91.4l-3.5-6.5V51.7l3.5-6.5l5.9-3.7h6.7l5.9,3.7l3.5,6.5v33.2l-3.5,6.5l-5.9,3.7h-6.7
	L309.9,91.4z M313.4,33l-9.9,6.1l-5.6,10.4V87l5.6,10.4l9.9,6.1h11.6l9.9-6.1l5.6-10.4V49.5l-5.6-10.4l-9.9-6.1H313.4z"/>
</svg>
