<?xml version="1.0" encoding="utf-8"?>
<!-- Generator: Adobe Illustrator 21.1.0, SVG Export Plug-In . SVG Version: 6.00 Build 0)  -->
<svg version="1.1" id="Layer_1" xmlns="http://www.w3.org/2000/svg" xmlns:xlink="http://www.w3.org/1999/xlink" x="0px" y="0px"
	 width="1920px" height="386.2px" viewBox="0 0 1920 386.2" style="enable-background:new 0 0 1920 386.2;" xml:space="preserve">
<style type="text/css">
	.st0{fill:none;stroke:#FFFFFF;stroke-width:1.5;stroke-miterlimit:10;}
</style>
<g>
	<polygon class="st0" points="262.7,141 214.4,321.3 166.1,141 131.4,141 83.1,321.3 34.8,141 0,141 64.8,382.8 101.3,382.8 
		148.8,205.9 196.2,382.8 232.7,382.8 297.5,141 	"/>
	<polygon class="st0" points="862.7,219.1 835.2,167.8 786.8,137.7 730.4,137.7 688.1,164 688.1,0 654.5,0 654.5,382.8 688.1,382.8 
		688.1,227.5 707.3,191.6 740,171.3 777.2,171.3 809.8,191.6 829.1,227.5 829.1,382.8 862.7,382.8 	"/>
	<path class="st0" d="M1403.8,296.3l-19.3,36l-32.6,20.3h-37.2l-32.6-20.3l-19.3-36v-68.8l19.3-36l32.6-20.3h37.2l32.6,20.3l19.3,36
		V296.3z M1403.8,141v23l-42.3-26.3h-56.4l-48.4,30.1l-27.5,51.3v85.7l27.5,51.3l48.4,30.1h56.4l42.3-26.3v23h33.6V141L1403.8,141
		L1403.8,141z"/>
	<polygon class="st0" points="1920,137.7 1876.3,137.7 1876.3,0 1842.8,0 1842.8,137.7 1799.1,137.7 1799.1,169.4 1842.8,169.4 
		1842.8,382.8 1876.3,382.8 1876.3,169.4 1920,169.4 	"/>
</g>
</svg>
