<?xml version="1.0" encoding="utf-8"?>
<!-- Generator: Adobe Illustrator 16.0.4, SVG Export Plug-In . SVG Version: 6.00 Build 0)  -->
<!DOCTYPE svg PUBLIC "-//W3C//DTD SVG 1.1//EN" "http://www.w3.org/Graphics/SVG/1.1/DTD/svg11.dtd">
<svg version="1.1" id="Layer_1" xmlns="http://www.w3.org/2000/svg" xmlns:xlink="http://www.w3.org/1999/xlink" x="0px" y="0px"
	 width="1900px" height="385.82px" viewBox="0 0 1900 385.82" enable-background="new 0 0 1900 385.82" xml:space="preserve">
<g>
	<g>
		<defs>
			<rect id="SVGID_1_" width="1900" height="385.82"/>
		</defs>
		<clipPath id="SVGID_2_">
			<use xlink:href="#SVGID_1_"  overflow="visible"/>
		</clipPath>
		<path clip-path="url(#SVGID_2_)" fill="#FFFFFF" stroke="#FFFFFF" stroke-width="1.5" stroke-miterlimit="10" d="M207.915,141.227
			v240.071h-33.346v-22.797l-42.031,26.133H76.559l-48.06-29.885L1.186,303.806v-85.085l27.312-50.944l48.06-29.884h55.979
			l42.031,26.137v-22.803H207.915z M174.569,227.098l-19.145-35.714l-32.407-20.145H86.08l-32.403,20.145l-19.149,35.714v68.33
			l19.149,35.714l32.403,20.146h36.938l32.407-20.146l19.145-35.714L174.569,227.098L174.569,227.098z"/>
	</g>
	<g>
		<defs>
			<rect id="SVGID_3_" width="1900" height="385.82"/>
		</defs>
		<clipPath id="SVGID_4_">
			<use xlink:href="#SVGID_3_"  overflow="visible"/>
		</clipPath>
		<path clip-path="url(#SVGID_4_)" fill="#FFFFFF" stroke="#FFFFFF" stroke-width="1.5" stroke-miterlimit="10" d="M665.357,218.721
			v85.085l-27.312,50.943l-48.064,29.885h-55.979l-42.031-26.137v22.801h-33.341V1.186h33.341v162.839l42.031-26.132h55.979
			l48.064,29.884L665.357,218.721z M632.011,227.098l-19.144-35.714l-32.403-20.145h-36.938l-32.407,20.145l-19.146,35.714v68.33
			l19.146,35.714l32.407,20.146h36.938l32.403-20.146l19.144-35.714V227.098z"/>
	</g>
	<g>
		<defs>
			<rect id="SVGID_5_" width="1900" height="385.82"/>
		</defs>
		<clipPath id="SVGID_6_">
			<use xlink:href="#SVGID_5_"  overflow="visible"/>
		</clipPath>
		<path clip-path="url(#SVGID_6_)" fill="#FFFFFF" stroke="#FFFFFF" stroke-width="1.5" stroke-miterlimit="10" d="
			M1026.076,384.634h-55.979l-48.06-29.885l-27.314-50.943v-85.085l27.314-50.944l48.06-29.884h55.979l48.063,29.884l27.314,50.944
			v85.085l-27.314,50.943L1026.076,384.634z M979.619,351.292h36.937l32.407-20.15l19.146-35.714v-68.33l-19.146-35.714
			l-32.407-20.143h-36.937l-32.402,20.143l-19.148,35.714v68.33l19.148,35.714L979.619,351.292z"/>
	</g>
	<g>
		<defs>
			<rect id="SVGID_7_" width="1900" height="385.82"/>
		</defs>
		<clipPath id="SVGID_8_">
			<use xlink:href="#SVGID_7_"  overflow="visible"/>
		</clipPath>
		<polygon clip-path="url(#SVGID_8_)" fill="#FFFFFF" stroke="#FFFFFF" stroke-width="1.5" stroke-miterlimit="10" points="
			1542.297,141.228 1542.297,381.298 1508.953,381.298 1508.953,358.503 1466.922,384.634 1410.944,384.634 1362.879,354.75 
			1335.564,303.804 1335.564,141.228 1368.908,141.228 1368.912,295.428 1388.057,331.14 1420.464,351.291 1457.402,351.291 
			1489.804,331.14 1508.953,295.428 1508.953,141.228 		"/>
	</g>
	<g>
		<defs>
			<rect id="SVGID_9_" width="1900" height="385.82"/>
		</defs>
		<clipPath id="SVGID_10_">
			<use xlink:href="#SVGID_9_"  overflow="visible"/>
		</clipPath>
		<polygon clip-path="url(#SVGID_10_)" fill="#FFFFFF" stroke="#FFFFFF" stroke-width="1.5" stroke-miterlimit="10" points="
			1898.812,169.384 1855.467,169.384 1855.467,381.298 1822.121,381.298 1822.121,169.384 1778.774,169.384 1778.774,137.893 
			1822.121,137.893 1822.121,1.186 1855.467,1.186 1855.467,137.893 1898.812,137.893 		"/>
	</g>
</g>
</svg>
