<?xml version="1.0" encoding="utf-8"?>
<!-- Generator: Adobe Illustrator 21.1.0, SVG Export Plug-In . SVG Version: 6.00 Build 0)  -->
<svg version="1.1" id="Layer_1" xmlns="http://www.w3.org/2000/svg" xmlns:xlink="http://www.w3.org/1999/xlink" x="0px" y="0px"
	 width="158px" height="254px" viewBox="0 0 158 254" style="enable-background:new 0 0 158 254;" xml:space="preserve">
<style type="text/css">
	.st0{fill:none;stroke:#3127C7;stroke-width:1.5;stroke-miterlimit:10;}
</style>
<polygon class="st0" points="153.4,83.8 153.4,53.9 133.2,23 99.1,5.6 60.1,5.6 26,23 5.8,53.9 5.8,90.1 26,121 60.1,138.4 
	94,138.4 118.6,151 132.3,171.9 132.3,195.6 118.6,216.5 94,229.1 65.2,229.1 40.6,216.5 26.9,195.6 26.9,171.9 5.8,171.9 
	5.8,201.9 26,232.8 60.1,250.2 99.1,250.2 133.2,232.8 153.4,201.9 153.4,165.6 133.2,134.7 99.1,117.3 65.2,117.3 40.6,104.8 
	26.9,83.8 26.9,60.2 40.6,39.2 65.2,26.7 94,26.7 118.6,39.2 132.3,60.2 132.3,83.8 "/>
</svg>
